<svg width="20" height="20" viewBox="0 0 20 20" fill="none" xmlns="http://www.w3.org/2000/svg">
<path d="M19.1308 7.41915C19.0732 7.24934 18.967 7.10013 18.8256 6.98994C18.6841 6.87975 18.5134 6.81341 18.3347 6.7991L13.1055 6.38359L10.8427 1.37458C10.7706 1.21324 10.6534 1.07622 10.5052 0.980034C10.357 0.883849 10.1841 0.832617 10.0074 0.83252C9.83069 0.832423 9.65774 0.883465 9.50941 0.979487C9.36109 1.07551 9.24372 1.21241 9.17148 1.37366L6.90867 6.38359L1.67951 6.7991C1.50382 6.81302 1.33586 6.87726 1.19572 6.98413C1.05559 7.09101 0.949205 7.236 0.88931 7.40175C0.829415 7.5675 0.818541 7.747 0.857988 7.91877C0.897436 8.09054 0.985535 8.24731 1.11175 8.37032L4.97605 12.1374L3.60937 18.0554C3.56788 18.2345 3.58118 18.422 3.64755 18.5935C3.71392 18.765 3.8303 18.9125 3.98159 19.0171C4.13288 19.1216 4.31208 19.1782 4.49596 19.1796C4.67983 19.181 4.85988 19.1271 5.01274 19.0249L10.0071 15.6954L15.0014 19.0249C15.1577 19.1286 15.3419 19.182 15.5294 19.1779C15.7169 19.1738 15.8986 19.1124 16.0502 19.0019C16.2017 18.8914 16.3158 18.7372 16.3771 18.5599C16.4383 18.3827 16.4438 18.1909 16.3929 18.0105L14.7152 12.1402L18.8758 8.396C19.1482 8.15018 19.2482 7.76678 19.1308 7.41915Z" fill="#F3CD03"/>
</svg>
